HIERARCHY
ROOT Hips
{
	OFFSET -3.958830 18.904000 13.208200
	CHANNELS 6 Xposition Yposition Zposition Zrotation Yrotation Xrotation 
	JOINT LHipJoint
	{
		OFFSET 0.000000 0.000000 0.000000
		CHANNELS 3 Zrotation Yrotation Xrotation
		JOINT LeftUpLeg
		{
			OFFSET 1.800000 -1.400000 0.085000
			CHANNELS 3 Zrotation Yrotation Xrotation
			JOINT LeftLeg
			{
				OFFSET 2.215000 -6.000000 0.000000
				CHANNELS 3 Zrotation Yrotation Xrotation
				JOINT LeftFoot
				{
					OFFSET 2.500000 -6.900000 0.000000
					CHANNELS 3 Zrotation Yrotation Xrotation
					JOINT LeftToeBase
					{
						OFFSET 0.200000 -0.500000 1.950000
						CHANNELS 3 Zrotation Yrotation Xrotation
						End Site
						{
							OFFSET 0.000000 0.000000 0.000000
						}
					}
				}
			}
		}
	}
	JOINT RHipJoint
	{
		OFFSET 0.000000 0.000000 0.000000
		CHANNELS 3 Zrotation Yrotation Xrotation
		JOINT RightUpLeg
		{
			OFFSET -1.800000 -1.400000 0.085000
			CHANNELS 3 Zrotation Yrotation Xrotation
			JOINT RightLeg
			{
				OFFSET -2.215000 -6.000000 0.000000
				CHANNELS 3 Zrotation Yrotation Xrotation
				JOINT RightFoot
				{
					OFFSET -2.500000 -6.900000 0.000000
					CHANNELS 3 Zrotation Yrotation Xrotation
					JOINT RightToeBase
					{
						OFFSET -0.200000 -0.500000 1.950000
						CHANNELS 3 Zrotation Yrotation Xrotation
						End Site
						{
							OFFSET 0.000000 0.000000 0.000000
						}
					}
				}
			}
		}
	}
	JOINT LowerBack
	{
		OFFSET 0.000000 0.000000 0.000000
		CHANNELS 3 Zrotation Yrotation Xrotation
		JOINT Spine
		{
			OFFSET -0.087000 1.940000 -0.288900
			CHANNELS 3 Zrotation Yrotation Xrotation
			JOINT Spine1
			{
				OFFSET 0.000000 1.950000 0.060000
				CHANNELS 3 Zrotation Yrotation Xrotation
				JOINT Neck
				{
					OFFSET 0.000000 0.000000 0.000000
					CHANNELS 3 Zrotation Yrotation Xrotation
					JOINT Neck1
					{
						OFFSET 0.000000 1.600000 0.340000
						CHANNELS 3 Zrotation Yrotation Xrotation
						JOINT Head
						{
							OFFSET 0.000000 1.667000 -0.240000
							CHANNELS 3 Zrotation Yrotation Xrotation
							End Site
							{
								OFFSET 0.000000 0.000000 0.000000
							}
						}
					}
				}
				JOINT LeftShoulder
				{
					OFFSET 0.000000 0.000000 0.000000
					CHANNELS 3 Zrotation Yrotation Xrotation
					JOINT LeftArm
					{
						OFFSET 2.700000 1.550000 -0.730000
						CHANNELS 3 Zrotation Yrotation Xrotation
						JOINT LeftForeArm
						{
							OFFSET 5.450000 0.000000 0.000000
							CHANNELS 3 Zrotation Yrotation Xrotation
							JOINT LeftHand
							{
								OFFSET 3.450000 0.000000 0.000000
								CHANNELS 3 Zrotation Yrotation Xrotation
								JOINT LeftHandIndex1
								{
									OFFSET 0.750000 0.000000 0.000000
									CHANNELS 3 Zrotation Yrotation Xrotation
									End Site
									{
										OFFSET 0.000000 0.000000 0.000000
									}
								}
							}
						}
					}
				}
				JOINT RightShoulder
				{
					OFFSET 0.000000 0.000000 0.000000
					CHANNELS 3 Zrotation Yrotation Xrotation
					JOINT RightArm
					{
						OFFSET -2.700000 1.550000 -0.730000
						CHANNELS 3 Zrotation Yrotation Xrotation
						JOINT RightForeArm
						{
							OFFSET -5.450000 0.000000 0.000000
							CHANNELS 3 Zrotation Yrotation Xrotation
							JOINT RightHand
							{
								OFFSET -3.450000 0.000000 0.000000
								CHANNELS 3 Zrotation Yrotation Xrotation
								JOINT RightHandIndex1
								{
									OFFSET -0.750000 0.000000 0.000000
									CHANNELS 3 Zrotation Yrotation Xrotation
									End Site
									{
										OFFSET 0.000000 0.000000 0.000000
									}
								}
							}
						}
					}
				}
			}
		}
	}
}
MOTION
Frames: 7
Frame Time: 0.016667
-1.303840 17.659010 -3.697260 -7.285448 -24.952452 12.728629 -15.525717 12.727394 4.082324 -5.164509 -6.587086 -29.242294 -10.721530 7.170583 20.681526 -0.559976 4.311360 3.341586 0.270180 -0.244790 0.232550 18.057961 -10.322618 2.665097 4.588353 -1.193350 0.475342 2.732672 -5.923822 21.158017 -0.495013 -4.785364 3.265264 -0.124530 0.511850 0.088690 -2.477533 -2.588023 -7.450834 -1.815711 3.175658 9.267183 3.683254 3.078514 -1.328235 2.312962 -4.809811 -6.324591 -9.330031 8.515580 28.502593 -6.246430 9.797810 -4.225460 -13.133909 11.693568 0.145286 -50.493000 10.740977 -10.656053 -27.805701 -25.068516 2.819407 -3.790441 2.872912 0.616610 0.303080 -0.303590 0.303960 9.667865 -5.929534 3.226953 47.104016 -11.808325 -17.681604 -82.705528 56.501616 -43.937638 1.191025 -0.607697 -0.424900 0.332090 0.004760 -0.324700 
-1.259640 17.656860 -3.730670 -6.110639 -26.585799 12.170087 -15.579218 12.488121 4.261199 -4.756774 -7.545758 -31.919407 -11.388796 8.481719 25.574638 -0.469916 5.176093 3.009868 0.278850 -0.241140 0.223570 18.059484 -10.162260 2.665518 5.012930 -1.276087 0.642210 3.948282 -6.027356 19.111334 -0.477561 -4.726155 3.273571 -0.096300 0.552300 0.121160 -2.448622 -2.550591 -7.487733 -3.332683 3.611518 9.373150 3.244848 3.460796 -1.072869 2.173762 -4.962935 -5.897706 -9.408182 9.239019 27.839220 -6.191130 9.924130 -4.388260 -13.060277 12.327605 -0.402906 -49.414956 9.077730 -9.822878 -25.668223 -27.699837 3.219283 -3.844529 2.904568 0.606730 0.344520 -0.326920 0.304090 9.781467 -6.329163 3.055121 46.224879 -10.019653 -15.091066 -92.047813 55.602612 -52.116503 1.227969 -0.590359 -0.435690 0.341940 0.035170 -0.329020 
-1.213880 17.639050 -3.760980 -5.453024 -28.408037 11.539716 -15.616585 12.186735 4.487317 -3.203588 -8.440003 -35.049668 -12.579446 10.379803 31.189670 -0.327428 6.402345 2.562098 0.323640 -0.172260 0.240840 18.086366 -10.011528 2.629915 5.458139 -1.325941 0.969024 4.682069 -6.119145 18.339687 -0.499157 -4.751357 3.250993 -0.019910 0.585350 0.114050 -2.509952 -2.425502 -7.535142 -3.891386 4.033784 9.535196 2.289644 3.897167 0.030683 1.981263 -5.182649 -5.584376 -9.558998 9.952422 26.712651 -5.730320 9.648150 -5.902750 -13.284117 12.226116 -0.926909 -47.794302 7.012928 -8.886814 -24.277738 -30.274891 3.668448 -3.865590 2.905898 0.608850 0.364070 -0.333670 0.320510 10.173495 -6.057435 3.097042 44.379941 -8.630436 -12.820269 -99.810358 55.296914 -61.064918 1.288547 -0.603122 -0.465840 0.405750 0.034730 -0.329310 
-1.162940 17.608980 -3.769930 -5.708399 -30.769598 11.327044 -15.624787 11.860981 4.710083 -0.893345 -8.879859 -38.301003 -13.273016 12.322879 36.498784 -0.173136 7.687635 2.080647 0.358060 -0.143920 0.279400 18.137873 -9.917803 2.602343 6.005479 -1.331065 1.311976 5.057832 -6.207462 18.263839 -0.510312 -4.835146 3.197163 0.033820 0.588770 0.128320 -2.665679 -2.135210 -7.609241 -2.933598 4.502253 9.547663 0.685546 4.532478 1.163183 2.184894 -5.350763 -5.489229 -9.632540 10.607641 26.032966 -6.057980 9.848970 -6.244890 -13.932587 11.719456 -1.470700 -45.703113 5.317955 -7.979790 -22.617351 -32.229556 3.857755 -3.911909 2.933360 0.595680 0.393120 -0.354190 0.301940 10.139419 -5.532211 3.437067 41.795209 -7.612755 -10.796613 -105.771050 55.335147 -69.314729 1.358536 -0.700416 -0.478760 0.410940 0.047900 -0.356270 
-1.121760 17.585510 -3.764100 -6.135571 -32.646155 10.770543 -15.633259 11.635478 4.924775 1.540903 -8.945850 -40.830833 -13.543697 14.052397 41.149111 0.017666 8.817718 1.667320 0.382640 -0.118420 0.306560 18.164798 -9.834160 2.615876 6.440178 -1.527348 2.377804 5.254911 -6.327630 18.138686 -0.557941 -4.934425 3.150216 0.048290 0.565290 0.144590 -2.765442 -1.967014 -7.788490 -1.624671 4.681297 10.510050 -0.806674 5.055755 1.389815 2.588875 -5.804422 -5.726767 -10.471096 10.947276 26.493847 -6.872160 9.910920 -6.873810 -15.170886 10.806531 -1.945171 -42.945645 4.096565 -7.067319 -20.606407 -33.390833 3.817509 -3.916590 2.941536 0.598750 0.387950 -0.336900 0.292020 10.348865 -4.350616 4.062232 38.465402 -6.936532 -9.254369 -110.924693 55.094273 -76.719520 1.460711 -0.862766 -0.461900 0.404060 0.048750 -0.364310 
-1.091140 17.556820 -3.760410 -6.234092 -34.939885 10.031685 -15.652975 11.467953 5.095791 3.482749 -8.780486 -42.833506 -13.314711 15.467910 45.068666 0.178853 9.729021 1.356865 0.430060 -0.054430 0.324310 18.173861 -9.790357 2.575247 6.022746 -1.668812 3.604889 5.111657 -6.387345 18.142202 -0.609281 -5.045734 3.119180 0.087240 0.558840 0.140950 -2.822902 -1.838058 -7.883365 -1.282598 4.923476 10.913605 -1.697367 5.519159 2.218228 2.700299 -6.187327 -6.096382 -11.217788 11.682609 26.986748 -6.591060 9.878620 -7.457660 -15.845014 9.572922 -1.836491 -41.278453 3.590720 -6.821707 -17.784265 -34.987382 3.419049 -3.888281 2.939112 0.605470 0.378400 -0.318150 0.317040 10.678009 -2.776491 4.505832 34.895388 -5.534024 -8.000670 -113.797254 55.742412 -82.156249 1.512797 -0.930512 -0.455050 0.425370 0.022340 -0.356280 
-1.059920 17.521600 -3.758980 -6.030760 -37.447062 9.185308 -15.678901 11.365071 5.248518 4.950914 -8.545634 -44.659750 -12.315270 16.433461 48.700876 0.309044 10.437617 1.115623 0.507090 0.050270 0.349610 18.167051 -9.773103 2.498402 4.951127 -1.697957 4.763373 4.718239 -6.372128 18.207112 -0.662897 -5.140056 3.081649 0.148240 0.541700 0.139370 -2.844780 -1.780736 -7.942368 -1.439999 5.122818 11.312118 -2.364364 5.919833 2.764317 2.656625 -6.785197 -6.402367 -12.364964 12.757113 27.005617 -5.649590 9.765340 -8.340970 -16.439233 8.590824 -1.680853 -39.536147 3.483486 -6.529905 -15.558490 -35.779030 3.003618 -3.839723 2.959820 0.609440 0.355260 -0.287570 0.354520 11.273030 -1.258055 4.791396 29.822997 -4.267837 -6.531012 -115.879502 57.545270 -87.562179 1.563758 -0.939793 -0.434460 0.440970 -0.023300 -0.338230 
